<mxfile host="Electron" modified="2024-04-09T19:57:58.899Z" agent="Mozilla/5.0 (Windows NT 10.0; Win64; x64) AppleWebKit/537.36 (KHTML, like Gecko) draw.io/24.1.0 Chrome/120.0.6099.109 Electron/28.1.0 Safari/537.36" etag="PgJZZ9Lx2270h9HUJygY" version="24.1.0" type="device">
  <diagram name="PÃ¡gina-1" id="E-DP9fMv0TR5NF7smadX">
    <mxGraphModel dx="1893" dy="1096" grid="1" gridSize="6" guides="1" tooltips="1" connect="1" arrows="1" fold="1" page="1" pageScale="1" pageWidth="800" pageHeight="550" math="1" shadow="0">
      <root>
        <mxCell id="0" />
        <mxCell id="1" parent="0" />
        <mxCell id="3qVgdPwwvXnHS_knHwvc-2" value="" style="rounded=0;whiteSpace=wrap;html=1;fillColor=#CCCCCC;strokeWidth=3;" parent="1" vertex="1">
          <mxGeometry x="42" y="30" width="660" height="480" as="geometry" />
        </mxCell>
        <mxCell id="3qVgdPwwvXnHS_knHwvc-3" value="\(\Omega\)" style="text;html=1;align=center;verticalAlign=middle;whiteSpace=wrap;rounded=0;fontSize=30;" parent="1" vertex="1">
          <mxGeometry x="696" y="18" width="60" height="30" as="geometry" />
        </mxCell>
        <mxCell id="3qVgdPwwvXnHS_knHwvc-5" value="\(A\)" style="text;html=1;align=center;verticalAlign=middle;whiteSpace=wrap;rounded=0;fontSize=30;" parent="1" vertex="1">
          <mxGeometry x="734" y="486" width="60" height="30" as="geometry" />
        </mxCell>
        <mxCell id="gsAHdqAID-3Vwvxk3V5d-2" value="" style="ellipse;whiteSpace=wrap;html=1;fillColor=#FF0000;strokeWidth=4;shadow=0;rotation=15;" parent="1" vertex="1">
          <mxGeometry x="108" y="108" width="540" height="270" as="geometry" />
        </mxCell>
        <mxCell id="jeO-GCqDV-jTHl-XJyJg-1" value="" style="curved=1;endArrow=none;html=1;rounded=0;entryX=0.5;entryY=0;entryDx=0;entryDy=0;strokeWidth=3;endFill=0;exitX=0;exitY=0.5;exitDx=0;exitDy=0;dashed=1;dashPattern=1 1;" edge="1" parent="1" source="3qVgdPwwvXnHS_knHwvc-2" target="3qVgdPwwvXnHS_knHwvc-2">
          <mxGeometry width="50" height="50" relative="1" as="geometry">
            <mxPoint x="18" y="284" as="sourcePoint" />
            <mxPoint x="120" y="66" as="targetPoint" />
            <Array as="points">
              <mxPoint x="108" y="240" />
              <mxPoint x="336" y="252" />
              <mxPoint x="240" y="150" />
            </Array>
          </mxGeometry>
        </mxCell>
        <mxCell id="jeO-GCqDV-jTHl-XJyJg-2" value="" style="curved=1;endArrow=none;html=1;rounded=0;strokeWidth=3;endFill=0;dashed=1;dashPattern=1 1;" edge="1" parent="1" target="3qVgdPwwvXnHS_knHwvc-2">
          <mxGeometry width="50" height="50" relative="1" as="geometry">
            <mxPoint x="300" y="234" as="sourcePoint" />
            <mxPoint x="648" y="30" as="targetPoint" />
            <Array as="points">
              <mxPoint x="344" y="290" />
              <mxPoint x="450" y="168" />
              <mxPoint x="660" y="180" />
            </Array>
          </mxGeometry>
        </mxCell>
        <mxCell id="jeO-GCqDV-jTHl-XJyJg-3" value="" style="curved=1;endArrow=none;html=1;rounded=0;entryX=0.5;entryY=0;entryDx=0;entryDy=0;strokeWidth=3;endFill=0;exitX=1;exitY=0.75;exitDx=0;exitDy=0;dashed=1;dashPattern=1 1;" edge="1" parent="1" source="3qVgdPwwvXnHS_knHwvc-2">
          <mxGeometry width="50" height="50" relative="1" as="geometry">
            <mxPoint x="12" y="507" as="sourcePoint" />
            <mxPoint x="372" y="252" as="targetPoint" />
            <Array as="points">
              <mxPoint x="534" y="402" />
              <mxPoint x="372" y="456" />
              <mxPoint x="414" y="342" />
            </Array>
          </mxGeometry>
        </mxCell>
        <mxCell id="jeO-GCqDV-jTHl-XJyJg-4" value="" style="curved=1;endArrow=none;html=1;rounded=0;entryX=0.5;entryY=0;entryDx=0;entryDy=0;strokeWidth=3;endFill=0;exitX=0;exitY=1;exitDx=0;exitDy=0;dashed=1;dashPattern=1 1;" edge="1" parent="1" source="3qVgdPwwvXnHS_knHwvc-2">
          <mxGeometry width="50" height="50" relative="1" as="geometry">
            <mxPoint x="-24" y="513" as="sourcePoint" />
            <mxPoint x="336" y="258" as="targetPoint" />
            <Array as="points">
              <mxPoint x="32" y="518" />
              <mxPoint x="282" y="426" />
              <mxPoint x="216" y="378" />
            </Array>
          </mxGeometry>
        </mxCell>
        <mxCell id="jeO-GCqDV-jTHl-XJyJg-5" value="" style="whiteSpace=wrap;html=1;aspect=fixed;fillColor=#FF0000;" vertex="1" parent="1">
          <mxGeometry x="726" y="490" width="20" height="20" as="geometry" />
        </mxCell>
        <mxCell id="jeO-GCqDV-jTHl-XJyJg-6" value="\(B_1\)" style="text;html=1;align=center;verticalAlign=middle;whiteSpace=wrap;rounded=0;fontSize=30;" vertex="1" parent="1">
          <mxGeometry x="41" y="40" width="60" height="30" as="geometry" />
        </mxCell>
        <mxCell id="jeO-GCqDV-jTHl-XJyJg-7" value="\(B_2\)" style="text;html=1;align=center;verticalAlign=middle;whiteSpace=wrap;rounded=0;fontSize=30;" vertex="1" parent="1">
          <mxGeometry x="647" y="40" width="60" height="30" as="geometry" />
        </mxCell>
        <mxCell id="jeO-GCqDV-jTHl-XJyJg-8" value="\(B_3\)" style="text;html=1;align=center;verticalAlign=middle;whiteSpace=wrap;rounded=0;fontSize=30;" vertex="1" parent="1">
          <mxGeometry x="647" y="184" width="60" height="30" as="geometry" />
        </mxCell>
        <mxCell id="jeO-GCqDV-jTHl-XJyJg-9" value="\(B_4\)" style="text;html=1;align=center;verticalAlign=middle;whiteSpace=wrap;rounded=0;fontSize=30;" vertex="1" parent="1">
          <mxGeometry x="160" y="472" width="60" height="30" as="geometry" />
        </mxCell>
        <mxCell id="jeO-GCqDV-jTHl-XJyJg-10" value="\(B_5\)" style="text;html=1;align=center;verticalAlign=middle;whiteSpace=wrap;rounded=0;fontSize=30;" vertex="1" parent="1">
          <mxGeometry x="40" y="286" width="60" height="30" as="geometry" />
        </mxCell>
        <mxCell id="jeO-GCqDV-jTHl-XJyJg-11" value="\(A \cap B_1\)" style="text;html=1;align=center;verticalAlign=middle;whiteSpace=wrap;rounded=0;fontSize=30;rotation=-35;" vertex="1" parent="1">
          <mxGeometry x="142" y="132" width="60" height="30" as="geometry" />
        </mxCell>
        <mxCell id="jeO-GCqDV-jTHl-XJyJg-12" value="\(A \cap B_2\)" style="text;html=1;align=center;verticalAlign=middle;whiteSpace=wrap;rounded=0;fontSize=30;rotation=15;" vertex="1" parent="1">
          <mxGeometry x="378" y="126" width="60" height="30" as="geometry" />
        </mxCell>
        <mxCell id="jeO-GCqDV-jTHl-XJyJg-13" value="\(A \cap B_3\)" style="text;html=1;align=center;verticalAlign=middle;whiteSpace=wrap;rounded=0;fontSize=30;rotation=-30;" vertex="1" parent="1">
          <mxGeometry x="546" y="329" width="60" height="30" as="geometry" />
        </mxCell>
        <mxCell id="jeO-GCqDV-jTHl-XJyJg-14" value="\(A \cap B_4\)" style="text;html=1;align=center;verticalAlign=middle;whiteSpace=wrap;rounded=0;fontSize=30;rotation=15;" vertex="1" parent="1">
          <mxGeometry x="308" y="329" width="60" height="30" as="geometry" />
        </mxCell>
        <mxCell id="jeO-GCqDV-jTHl-XJyJg-15" value="\(A \cap B_5\)" style="text;html=1;align=center;verticalAlign=middle;whiteSpace=wrap;rounded=0;fontSize=30;rotation=30;" vertex="1" parent="1">
          <mxGeometry x="193" y="274" width="60" height="30" as="geometry" />
        </mxCell>
      </root>
    </mxGraphModel>
  </diagram>
</mxfile>
